name C:\Users\r0593348\3dpredictsim\Results\Batchsim_tmt_linear_v2\Pog_s1_tmt_bCst_d00_k500_ig24_act.mot
datacolumns 128
datarows 4
range 0.65443722 0.69370345
endheader
time	pelvis_tilt	pelvis_list	pelvis_rotation	pelvis_tx	pelvis_ty	pelvis_tz	hip_flexion_l	hip_adduction_l	hip_rotation_l	hip_flexion_r	hip_adduction_r	hip_rotation_r	knee_angle_l	knee_angle_r	ankle_angle_l	ankle_angle_r	subtalar_angle_l	subtalar_angle_r	tmt_angle_l	tmt_angle_r	mtp_angle_l	mtp_angle_r	lumbar_extension	lumbar_bending	lumbar_rotation	arm_flex_l	arm_add_l	arm_rot_l	arm_flex_r	arm_add_r	arm_rot_r	elbow_flex_l	elbow_flex_r	pro_sup_l	pro_sup_r	glut_med1_l/activation	glut_med2_l/activation	glut_med3_l/activation	glut_min1_l/activation	glut_min2_l/activation	glut_min3_l/activation	semimem_l/activation	semiten_l/activation	bifemlh_l/activation	bifemsh_l/activation	sar_l/activation	add_long_l/activation	add_brev_l/activation	add_mag1_l/activation	add_mag2_l/activation	add_mag3_l/activation	tfl_l/activation	pect_l/activation	grac_l/activation	glut_max1_l/activation	glut_max2_l/activation	glut_max3_l/activation	iliacus_l/activation	psoas_l/activation	quad_fem_l/activation	gem_l/activation	peri_l/activation	rect_fem_l/activation	vas_med_l/activation	vas_int_l/activation	vas_lat_l/activation	med_gas_l/activation	lat_gas_l/activation	soleus_l/activation	tib_post_l/activation	flex_dig_l/activation	flex_hal_l/activation	tib_ant_l/activation	per_brev_l/activation	per_long_l/activation	per_tert_l/activation	ext_dig_l/activation	ext_hal_l/activation	ercspn_l/activation	intobl_l/activation	extobl_l/activation	glut_med1_r/activation	glut_med2_r/activation	glut_med3_r/activation	glut_min1_r/activation	glut_min2_r/activation	glut_min3_r/activation	semimem_r/activation	semiten_r/activation	bifemlh_r/activation	bifemsh_r/activation	sar_r/activation	add_long_r/activation	add_brev_r/activation	add_mag1_r/activation	add_mag2_r/activation	add_mag3_r/activation	tfl_r/activation	pect_r/activation	grac_r/activation	glut_max1_r/activation	glut_max2_r/activation	glut_max3_r/activation	iliacus_r/activation	psoas_r/activation	quad_fem_r/activation	gem_r/activation	peri_r/activation	rect_fem_r/activation	vas_med_r/activation	vas_int_r/activation	vas_lat_r/activation	med_gas_r/activation	lat_gas_r/activation	soleus_r/activation	tib_post_r/activation	flex_dig_r/activation	flex_hal_r/activation	tib_ant_r/activation	per_brev_r/activation	per_long_r/activation	per_tert_r/activation	ext_dig_r/activation	ext_hal_r/activation	ercspn_r/activation	intobl_r/activation	extobl_r/activation	
          0.65443722	          3.75301469	         -2.09826442	         -9.51546890	          0.81804652	          0.85803850	          0.00114971	         30.27022293	         -3.52894032	         -3.37406005	        -26.10261397	         -0.96169994	         -1.53543512	        -16.19638027	        -13.97093400	        -33.94093287	        -19.15736551	         -0.76984555	         -0.58240093	         -0.10327745	          2.06402365	         -0.62237685	         40.99971185	         -1.91173959	          6.38681667	          2.14152905	          1.93501754	        -13.58203030	         10.60065705	        -15.79243590	        -14.09956473	         16.40989376	         17.77278221	         16.12184212	         86.51662706	         86.51662706	          0.06097897	          0.06091865	          0.09889018	          0.05000548	          0.05000831	          0.05004906	          0.10164950	          0.09574444	          0.09670994	          0.12758652	          0.07910768	          0.05000251	          0.05000443	          0.15231051	          0.19756702	          0.17203861	          0.05016449	          0.05001090	          0.14853712	          0.06093373	          0.14914058	          0.22714648	          0.12076243	          0.12407987	          0.12200746	          0.06517516	          0.10819866	          0.05000064	          0.05000144	          0.05000136	          0.05000063	          0.06090773	          0.06090801	          0.06090729	          0.06689297	          0.08914987	          0.09038161	          0.05000032	          0.06090875	          0.08429505	          0.30691075	          0.05000236	          0.05000545	          0.05000020	          0.24163700	          0.15350169	          0.12567580	          0.05000823	          0.05000737	          0.14609290	          0.05768474	          0.05001645	          0.05020684	          0.06090819	          0.06090458	          0.06091295	          0.06102182	          0.36347829	          0.21674721	          0.25018133	          0.05034230	          0.05004577	          0.10564521	          0.13960200	          0.06184334	          0.05006101	          0.05004452	          0.05004980	          0.40595394	          0.62176709	          0.05039305	          0.06002665	          0.05003044	          0.31022066	          0.07098933	          0.08579709	          0.06223558	          0.05000043	          0.09762957	          0.05000021	          0.17666194	          0.16330004	          0.18063418	          0.05773208	          0.18984310	          0.12038020	          0.49267742	          0.42268319	          0.15717270	          0.05000082	          0.05265887	          0.10322763	
          0.66752596	          3.76457613	         -2.26894821	         -9.38623349	          0.84130448	          0.85756010	          0.00070421	         30.03067082	         -3.51929130	         -3.31017680	        -25.97320144	         -1.14320496	         -1.88661265	        -17.89692284	        -15.86043161	        -31.22866953	        -23.04222428	          0.16380919	         -1.02681649	          0.02670759	          1.57877819	         -0.07045244	         41.65637475	         -1.57801901	          6.11044535	          2.26581222	         -0.38373737	        -13.51347899	         11.20587174	        -15.52687713	        -14.19683575	         16.46849373	         18.19612336	         15.49279613	         86.51662706	         86.51662706	          0.13053634	          0.05001547	          0.35743807	          0.16928161	          0.06101850	          0.05000627	          0.08344619	          0.07859880	          0.07939125	          0.10473850	          0.06494205	          0.07809470	          0.09038925	          0.12503953	          0.16219411	          0.18454791	          0.05000234	          0.07424999	          0.12193854	          0.05002321	          0.12244418	          0.25684483	          0.09913654	          0.10185985	          0.10015900	          0.23477109	          0.37452227	          0.05000055	          0.05000165	          0.05000181	          0.13385962	          0.05000046	          0.05000081	          0.05000015	          0.05491392	          0.07318553	          0.07419635	          0.07419415	          0.05000169	          0.06919957	          0.38082407	          0.11184002	          0.13036773	          0.05000760	          0.19836483	          0.12601263	          0.10907088	          0.05000090	          0.05000046	          0.11993244	          0.05000500	          0.05000211	          0.05002360	          0.05000254	          0.05000482	          0.05000593	          0.05010756	          0.29838905	          0.29839897	          0.20538110	          0.05491642	          0.05001714	          0.08672991	          0.11461899	          0.05077167	          0.05002202	          0.05001648	          0.05001632	          0.33325646	          0.53952699	          0.05000121	          0.05000210	          0.05000129	          0.25466664	          0.06091273	          0.07049587	          0.05328277	          0.05310225	          0.08015062	          0.07017531	          0.14502542	          0.13405764	          0.14828659	          0.11276237	          0.15584720	          0.09882279	          0.62653353	          0.62413524	          0.12902661	          0.05710219	          0.05000015	          0.08474193	
          0.68061471	          3.77926471	         -2.41847242	         -9.20717954	          0.86431805	          0.85659044	          0.00024621	         29.65059390	         -3.44830928	         -3.25459180	        -25.57552689	         -1.31262299	         -2.18944940	        -20.32697451	        -18.24827958	        -27.67484077	        -26.24700749	          1.07991384	         -1.50834297	          0.47633810	          1.28011212	          1.77290072	         40.20011813	         -1.28701362	          5.77656713	          2.37478093	         -2.65768442	        -13.48977401	         11.94070127	        -15.19478739	        -14.27156308	         16.47448326	         18.57311367	         14.84045608	         86.51662706	         86.51662706	          0.19849444	          0.25597693	          0.45632453	          0.13896781	          0.05009358	          0.34298090	          0.06850273	          0.06452351	          0.06517398	          0.08598208	          0.09034661	          0.06410989	          0.07420266	          0.10264798	          0.13314897	          0.15149989	          0.07419799	          0.06095667	          0.10010229	          0.17510404	          0.15616599	          0.21084963	          0.08138348	          0.08361916	          0.30620711	          0.19273151	          0.30745779	          0.07816213	          0.24496848	          0.23521873	          0.28811086	          0.11009323	          0.11009183	          0.09227581	          0.24860560	          0.35110016	          0.25797235	          0.06090749	          0.09038088	          0.09038121	          0.31262632	          0.09181181	          0.10702181	          0.05000013	          0.16284170	          0.10344634	          0.08953967	          0.05001643	          0.05515674	          0.09845655	          0.05001406	          0.05002420	          0.05620787	          0.05018207	          0.06089032	          0.05000275	          0.05001627	          0.27670206	          0.36177357	          0.28044325	          0.11232347	          0.11353245	          0.07119961	          0.09410052	          0.05288146	          0.05009125	          0.05009520	          0.05037890	          0.27357708	          0.44290893	          0.06089890	          0.06088866	          0.05007730	          0.20906108	          0.05001005	          0.11505316	          0.08911823	          0.06325015	          0.09452370	          0.06095286	          0.11905442	          0.11005362	          0.12173188	          0.09994995	          0.12793866	          0.08112583	          0.51433474	          0.79405967	          0.53407561	          0.09023633	          0.05981392	          0.07419440	
          0.69370345	          3.79058882	         -2.52902862	         -8.98635738	          0.88675233	          0.85574003	         -0.00024556	         28.92003180	         -3.28334591	         -3.18585315	        -24.90551693	         -1.47914044	         -2.42732839	        -22.50246928	        -20.98587737	        -23.14890917	        -28.89831203	          2.01732882	         -2.05999820	          0.95401934	          0.91749735	          3.70225561	         36.73756775	         -1.04364251	          5.38388300	          2.46741331	         -4.82208544	        -13.47855523	         12.82979429	        -14.70953631	        -14.29310021	         16.40497628	         18.82841513	         14.08171040	         86.51662706	         86.51662706	          0.21023089	          0.38843044	          0.61393921	          0.11408923	          0.23743955	          0.36382427	          0.05623553	          0.05296924	          0.05350298	          0.07058486	          0.07416901	          0.05262982	          0.06091498	          0.08426683	          0.10930637	          0.15057402	          0.06091229	          0.05004873	          0.08217725	          0.27384471	          0.21656736	          0.18825067	          0.06680952	          0.06864484	          0.32042859	          0.16377388	          0.39541402	          0.06416507	          0.20110162	          0.19309986	          0.27098469	          0.09037780	          0.09037675	          0.07575109	          0.22962509	          0.28823634	          0.21177557	          0.05000033	          0.07419562	          0.07419579	          0.25664166	          0.07537039	          0.08785727	          0.05114087	          0.13368005	          0.08492122	          0.07432566	          0.05000053	          0.05000032	          0.08082851	          0.05000436	          0.05000154	          0.07054038	          0.05000278	          0.05001255	          0.05000220	          0.05004276	          0.22715318	          0.29699246	          0.23022401	          0.09221817	          0.09320618	          0.05846177	          0.07725587	          0.05000562	          0.05001219	          0.05000821	          0.05000816	          0.22458525	          0.38268391	          0.05000096	          0.05000183	          0.05000123	          0.17162273	          0.09944032	          0.09445239	          0.07316123	          0.05192408	          0.07759962	          0.05003861	          0.09773430	          0.09034796	          0.09993261	          0.09279983	          0.10502827	          0.06659811	          0.42974305	          0.89002281	          0.43843354	          0.10982666	          0.05000014	          0.06090779	
